<?xml version="1.0" encoding="utf-8"?>
<!-- Generator: Adobe Illustrator 21.0.0, SVG Export Plug-In . SVG Version: 6.00 Build 0)  -->
<svg version="1.1" id="图层_1" xmlns="http://www.w3.org/2000/svg" xmlns:xlink="http://www.w3.org/1999/xlink" x="0px" y="0px"
	 viewBox="0 0 36 36" style="enable-background:new 0 0 36 36;" xml:space="preserve">
<style type="text/css">
	.st0{fill:#FFFFFF;}
</style>
<g>
	<g>
		<path class="st0" d="M9.6,3.1L3.8,8.9c-0.4,0.4-0.6,0.9-0.6,1.4c0,0.5,0.2,1.1,0.6,1.4l5.8,5.8l4.3-4.3l-1.4-1.4l-2.9,2.9
			l-1.4-1.4l2.9-2.9L9.6,8.9l-2.9,2.9l-1.4-1.4L11,4.5l5.8,5.8l1.4-1.4l-5.8-5.8c-0.4-0.4-0.9-0.6-1.4-0.6C10.5,2.5,10,2.7,9.6,3.1
			L9.6,3.1z M31.2,24.7l-5.8,5.8L24,29.1l2.9-2.9l-1.4-1.4l-2.9,2.9l-1.4-1.4l2.9-2.9l-1.4-1.4l-4.3,4.3L24,32
			c0.4,0.4,0.9,0.6,1.4,0.6c0.5,0,1.1-0.2,1.4-0.6l5.8-5.8c0.4-0.4,0.6-0.9,0.6-1.4c0-0.5-0.2-1.1-0.6-1.4l-5.8-5.8L25.5,19
			L31.2,24.7z M23.9,7.4l4.4,4.4l-1.5,1.5l-4.4-4.4L23.9,7.4z M9.1,22.2l4.4,4.4l-1.5,1.5l-4.4-4.4L9.1,22.2z M23.9,4.4
			c0.8-0.8,1.9-1.2,3-1.2c1.1,0,2.2,0.4,3,1.2l1.5,1.5c1.6,1.6,1.6,4.3,0,5.9L13,30.2l-9,1.6l1.6-9L23.9,4.4z M12.3,27.9l17.6-17.6
			c0.8-0.8,0.8-2.1,0-2.9l-1.5-1.5c-0.8-0.8-2.1-0.8-2.9,0L7.8,23.5l-0.9,5.4L12.3,27.9L12.3,27.9z M12.3,27.9"/>
	</g>
</g>
</svg>
