<?xml version="1.0" encoding="utf-8"?>
<!-- Generator: Adobe Illustrator 21.0.0, SVG Export Plug-In . SVG Version: 6.00 Build 0)  -->
<svg version="1.1" id="图层_1" xmlns="http://www.w3.org/2000/svg" xmlns:xlink="http://www.w3.org/1999/xlink" x="0px" y="0px"
	 viewBox="0 0 20 20" style="enable-background:new 0 0 20 20;" xml:space="preserve">
<style type="text/css">
	.st0{fill:#FFFFFF;}
	.st1{fill:none;stroke:#FFFFFF;stroke-miterlimit:10;}
</style>
<g>
	<g>
		<rect x="12.1" y="2.3" class="st0" width="1.3" height="16.9"/>
		<path class="st0" d="M13.2,1l3.5,5.6v12.6h-6.5v-1.3h5.2V7.1l-2.5-4.4L7.2,7v0.3L5.9,8V6.6L13.2,1z M13.2,1"/>
		<path class="st0" d="M1.1,19.2v-1.3h2.6V9.3l5.1-2.9l2.6,2.9v8.6l7.8,0v1.3H1.1z M7.6,16.2L5,17.1v0.8h2.6V16.2z M8.9,8.5v9.4h1.3
			V9.8L8.9,8.5z M7.6,13.6L5,14.5v1.2l2.6-0.9V13.6z M7.6,11.3L5,12.2v0.9l2.6-0.9V11.3z M7.6,8.3L5,10v0.9L7.6,10V8.3z M7.6,8.3"/>
	</g>
	<line class="st1" x1="1.6" y1="19.2" x2="1.6" y2="0.8"/>
</g>
</svg>
