<?xml version="1.0" encoding="utf-8"?>
<!-- Generator: Adobe Illustrator 21.0.0, SVG Export Plug-In . SVG Version: 6.00 Build 0)  -->
<svg version="1.1" id="图层_1" xmlns="http://www.w3.org/2000/svg" xmlns:xlink="http://www.w3.org/1999/xlink" x="0px" y="0px"
	 viewBox="0 0 20 20" style="enable-background:new 0 0 20 20;" xml:space="preserve">
<style type="text/css">
	.st0{fill:#FFFFFF;}
</style>
<g>
	<g>
		<path class="st0" d="M19.4,19.4H0.6V5.3l5.3-4.4l5.3,3.9L13.6,1h5.8V19.4z M1.6,18.4h16.8V2h-4.2l-2.7,4.2L5.9,2.1L1.6,5.7V18.4z"
			/>
	</g>
	<g>
		<polygon class="st0" points="11.6,11.6 5.9,8.4 1.4,11.4 0.8,10.6 5.9,7.3 11.4,10.4 13.7,7.8 18.9,7.8 18.9,8.8 14.1,8.8 		"/>
	</g>
	<g>
		<rect x="10.2" y="13.1" transform="matrix(0.1622 -0.9868 0.9868 0.1622 -0.3149 26.8063)" class="st0" width="10.8" height="1"/>
	</g>
	<g>
		<rect x="6.7" y="14.5" transform="matrix(0.1856 -0.9826 0.9826 0.1856 -5.9489 22.7508)" class="st0" width="8.1" height="1"/>
	</g>
	<g>
		<rect x="-0.4" y="13.1" transform="matrix(0.1837 -0.983 0.983 0.1837 -9.2781 16.0047)" class="st0" width="10.9" height="1"/>
	</g>
</g>
</svg>
