<?xml version="1.0" encoding="utf-8"?>
<!-- Generator: Adobe Illustrator 21.0.0, SVG Export Plug-In . SVG Version: 6.00 Build 0)  -->
<svg version="1.1" id="图层_1" xmlns="http://www.w3.org/2000/svg" xmlns:xlink="http://www.w3.org/1999/xlink" x="0px" y="0px"
	 viewBox="0 0 20 20" style="enable-background:new 0 0 20 20;" xml:space="preserve">
<style type="text/css">
	.st0{opacity:1;}
	.st1{fill:#FFFFFF;}
	.st2{opacity:1;fill:#FFFFFF;}
	.st3{fill:none;stroke:#FFFFFF;stroke-width:0.8;stroke-miterlimit:10;}
	.st4{fill:none;stroke:#FFFFFF;stroke-width:0.3;stroke-miterlimit:10;}
</style>
<g class="st0">
	<g>
		<circle class="st1" cx="7.3" cy="15.8" r="1.6"/>
		<circle class="st1" cx="8.6" cy="11.4" r="1.2"/>
		<circle class="st2" cx="8.3" cy="12.6" r="1.2"/>
		<circle class="st1" cx="9.5" cy="8.2" r="0.8"/>
		<circle class="st2" cx="9.3" cy="8.9" r="0.8"/>
		<circle class="st1" cx="10.2" cy="5.6" r="0.5"/>
		<circle class="st2" cx="10.1" cy="6.1" r="0.5"/>
		<circle class="st1" cx="10.7" cy="4.2" r="0.3"/>
		<circle class="st1" cx="4.3" cy="12.3" r="0.8"/>
		<circle class="st2" cx="4" cy="12.9" r="0.8"/>
		<circle class="st1" cx="6.2" cy="9.1" r="0.7"/>
		<circle class="st2" cx="6" cy="9.7" r="0.7"/>
		<circle class="st1" cx="7.7" cy="6.8" r="0.6"/>
		<circle class="st2" cx="7.4" cy="7.2" r="0.6"/>
		<circle class="st1" cx="8.7" cy="5" r="0.4"/>
		<circle class="st2" cx="8.6" cy="5.4" r="0.4"/>
		<circle class="st1" cx="9.6" cy="3.6" r="0.3"/>
		<circle class="st1" cx="15.8" cy="15.8" r="1.6"/>
		<circle class="st1" cx="14.5" cy="11.4" r="1.2"/>
		<circle class="st2" cx="14.8" cy="12.6" r="1.2"/>
		<circle class="st1" cx="13.6" cy="8.2" r="0.8"/>
		<circle class="st2" cx="13.7" cy="8.9" r="0.8"/>
		<circle class="st1" cx="12.8" cy="5.6" r="0.5"/>
		<circle class="st2" cx="13" cy="6.1" r="0.5"/>
		<circle class="st1" cx="12.4" cy="4.2" r="0.3"/>
		<circle class="st1" cx="18.7" cy="12.3" r="0.8"/>
		<circle class="st2" cx="19.1" cy="12.9" r="0.8"/>
		<circle class="st1" cx="16.8" cy="9.1" r="0.7"/>
		<circle class="st2" cx="17.1" cy="9.7" r="0.7"/>
		<circle class="st1" cx="15.4" cy="6.8" r="0.6"/>
		<circle class="st2" cx="15.6" cy="7.2" r="0.6"/>
		<circle class="st1" cx="14.3" cy="5" r="0.4"/>
		<circle class="st2" cx="14.5" cy="5.4" r="0.4"/>
		<circle class="st1" cx="13.4" cy="3.6" r="0.3"/>
		<circle class="st2" cx="6.8" cy="17" r="1.6"/>
		<circle class="st2" cx="16.4" cy="17" r="1.6"/>
	</g>
	<path class="st3" d="M0.4,18.6V3C0.4,2.4,0.9,2,1.4,2h5.4C7.3,2,7.7,2.4,7.7,3v15.6"/>
	<rect x="1.3" y="5.9" class="st4" width="1.3" height="1.3"/>
	<rect x="3.6" y="5.9" class="st4" width="1.3" height="1.3"/>
	<rect x="1.3" y="8.4" class="st4" width="1.3" height="1.3"/>
	<rect x="3.6" y="8.4" class="st4" width="1.3" height="1.3"/>
	<rect x="5.7" y="5.9" class="st4" width="1.3" height="1.3"/>
	<rect x="5.7" y="8.4" class="st4" width="1.3" height="1.3"/>
	<rect x="1.3" y="10.7" class="st4" width="1.3" height="1.3"/>
	<rect x="3.6" y="10.7" class="st4" width="1.3" height="1.3"/>
	<rect x="1.3" y="13.1" class="st4" width="1.3" height="1.3"/>
	<rect x="3.6" y="13.1" class="st4" width="1.3" height="1.3"/>
	<rect x="5.7" y="10.7" class="st4" width="1.3" height="1.3"/>
	<rect x="5.7" y="13.1" class="st4" width="1.3" height="1.3"/>
	<rect x="1.3" y="15.4" class="st4" width="1.3" height="1.3"/>
	<rect x="3.6" y="15.4" class="st4" width="1.3" height="1.3"/>
	<rect x="5.7" y="15.4" class="st4" width="1.3" height="1.3"/>
	<line class="st3" x1="0.1" y1="18.6" x2="19" y2="18.6"/>
</g>
</svg>
