<?xml version="1.0" encoding="utf-8"?>
<!-- Generator: Adobe Illustrator 21.0.0, SVG Export Plug-In . SVG Version: 6.00 Build 0)  -->
<svg version="1.1" id="图层_1" xmlns="http://www.w3.org/2000/svg" xmlns:xlink="http://www.w3.org/1999/xlink" x="0px" y="0px"
	 viewBox="0 0 20 20" style="enable-background:new 0 0 20 20;" xml:space="preserve">
<style type="text/css">
	.st0{opacity:1;}
	.st1{fill:#22e8e2;}
</style>
<g class="st0">
	<g>
		<path class="st1" d="M18,9.1h2v2h-2V9.1z M11.8,7.4l3.4-3.1l0.7,0.7l-3.4,3.1L11.8,7.4z M11.8,7.4"/>
		<path class="st1" d="M14.1,9.1H20v1h-5.9V9.1z M0,9.1h3v1H0V9.1z M0,9.1"/>
		<path class="st1" d="M0,9.1h2v2H0V9.1z M6.1,4.1L3,7.1v8.8h9.9l3.1-3V4.1H6.1z M7,9.9V9h1v1H7z M9,9.9V9h1v1H9z M11,9.9V9h1v1H11z
			 M6,9.9h-1V9h1V9.9z M15,12.4l-2.1,2V7.1H4.3L6.5,5H15V12.4z M15,12.4"/>
	</g>
</g>
</svg>
