<?xml version="1.0" encoding="utf-8"?>
<!-- Generator: Adobe Illustrator 21.0.0, SVG Export Plug-In . SVG Version: 6.00 Build 0)  -->
<svg version="1.1" id="图层_1" xmlns="http://www.w3.org/2000/svg" xmlns:xlink="http://www.w3.org/1999/xlink" x="0px" y="0px"
	 viewBox="0 0 20 20" style="enable-background:new 0 0 20 20;" xml:space="preserve">
<style type="text/css">
	.st0{opacity:0.23;}
	.st1{fill:#FFFFFF;}
</style>
<g>
	<g>
		<g class="st0">
			<g>
				<path class="st1" d="M6.8,7.3c-1.9,0-3.3,0.3-5,0.9l0,10.3L19.5,13C16.4,9.5,11.9,7.3,6.8,7.3z"/>
			</g>
		</g>
	</g>
	<g>
		<path class="st1" d="M19.2,4.9c-2.9-2.4-6.6-3.7-10.3-3.7c-2.5,0-5,0.6-7.2,1.7L1.4,2.5c2.3-1.2,4.8-1.7,7.5-1.7
			c3.9,0,7.6,1.3,10.6,3.8L19.2,4.9z"/>
	</g>
	<g>
		<path class="st1" d="M19.3,8.9c-3-2.7-6.9-4.2-10.9-4.2C6,4.7,3.8,5.2,1.7,6.1L1.5,5.7c2.2-1,4.5-1.5,6.9-1.5
			c4.2,0,8.2,1.5,11.3,4.3L19.3,8.9z"/>
	</g>
	<g>
		<path class="st1" d="M19.4,13c-0.1,0-0.1,0-0.2-0.1c-3.1-3.5-7.6-5.5-12.3-5.5c-1.8,0-3.5,0.3-5.2,0.8c-0.1,0-0.3,0-0.3-0.2
			c0-0.1,0-0.3,0.2-0.3c1.7-0.6,3.5-0.9,5.3-0.9c4.8,0,9.4,2.1,12.6,5.7c0.1,0.1,0.1,0.3,0,0.3C19.5,13,19.4,13,19.4,13z"/>
	</g>
	<g>
		<circle class="st1" cx="1.7" cy="18.3" r="1.4"/>
	</g>
	<g>
		<path class="st1" d="M1.6,18.7l-0.1-0.1c-0.1-0.1-0.1-0.1-0.1-0.2V2.7c0-0.1,0.1-0.2,0.2-0.2s0.2,0.1,0.2,0.2V18L19.1,4.6
			c0.1-0.1,0.3-0.1,0.4,0c0.1,0.1,0.2,0.2,0.2,0.3l0,8.1c0,0.1-0.1,0.2-0.2,0.3L1.6,18.7z M19.2,5.2L2.9,17.8l16.3-5L19.2,5.2z
			 M19.2,13C19.2,13,19.2,13,19.2,13L19.2,13z"/>
	</g>
	<g>
		<path class="st1" d="M6,7.4c-0.1,0-0.2-0.1-0.2-0.2V1.3c0-0.1,0.1-0.2,0.2-0.2c0.1,0,0.2,0.1,0.2,0.2v5.8C6.2,7.3,6.1,7.4,6,7.4z"
			/>
	</g>
	<g>
		<path class="st1" d="M12.3,8.3c-0.1,0-0.2-0.1-0.2-0.2V1.4c0-0.1,0.1-0.2,0.2-0.2c0.1,0,0.2,0.1,0.2,0.2V8
			C12.5,8.2,12.4,8.3,12.3,8.3z"/>
	</g>
</g>
</svg>
